Coordinates
version=1
nRows=6
nColumns=107
inDegrees=yes

Units are S.I. units (second, meters, Newtons, ...)
If the header above contains a line with 'inDegrees', this indicates whether rotational values are in degrees (yes) or radians (no).

endheader
time	sternoclavicular_r2	sternoclavicular_r3	unrotscap_r3	unrotscap_r2	acromioclavicular_r2	acromioclavicular_r3	acromioclavicular_r1	unrothum_r1	unrothum_r3	unrothum_r2	elv_angle	shoulder_elv	shoulder1_r2	shoulder_rot	elbow_flexion	pro_sup	deviation	flexion	proximal_distal_r1	proximal_distal_r3	cmc_flexion	cmc_abduction	mp_flexion	ip_flexion	mcp2_flexion	mcp2_abduction	pm2_flexion	md2_flexion	mcp3_flexion	mcp3_abduction	pm3_flexion	md3_flexion	mcp4_flexion	mcp4_abduction	pm4_flexion	md4_flexion	mcp5_flexion	mcp5_abduction	pm5_flexion	md5_flexion	bicpt_tx	bicpt_ty	bicpt_tz	bicpt2_tx	bicpt2_ty	bicpt2_tz	ptpt_tx	ptpt_ty	ptpt_tz	FCUpt_tx	FCUpt_ty	FCUpt_tz	EDCpt_tx	EDCpt_ty	EDCpt_tz	APLpt_tx	APLpt_ty	APLpt_tz	FPLpt_tx	FPLpt_ty	FPLpt_tz	FPLpt2_tx	FPLpt2_ty	FPLpt2_tz	PEC1pt2_tx	PEC1pt2_ty	PEC1pt2_tz	PEC1pt3_tx	PEC1pt3_ty	PEC1pt3_tz	PEC2pt2_tx	PEC2pt2_ty	PEC2pt2_tz	PEC2pt3_tx	PEC2pt3_ty	PEC2pt3_tz	PEC3pt2_tx	PEC3pt2_ty	PEC3pt2_tz	PEC3pt3_tx	PEC3pt3_ty	PEC3pt3_tz	DELT2pt2a_tx	DELT2pt2a_ty	DELT2pt2a_tz	DELT2pt2_tx	DELT2pt2_ty	DELT2pt2_tz	LAT1pt2_tx	LAT1pt2_ty	LAT1pt2_tz	LAT1pt3_tx	LAT1pt3_ty	LAT1pt3_tz	LAT2pt2_tx	LAT2pt2_ty	LAT2pt2_tz	LAT2pt3_tx	LAT2pt3_ty	LAT2pt3_tz	LAT3pt2_tx	LAT3pt2_ty	LAT3pt2_tz	LAT3pt3_tx	LAT3pt3_ty	LAT3pt3_tz
      1.36666667	     -0.31933087	      0.13525349	     -0.13525349	      0.31933087	     -0.06465801	      0.52254326	      0.23487960	     -0.23487960	     -0.52254326	      0.06465801	    100.45004398	     75.60442279	     -1.75318400	    -29.19582358	     30.35637501	     55.50893672	      0.22083752	      0.33661199	      0.25978961	      0.16830599	     38.53379199	     -9.59539771	     12.77033488	     -1.51402088	    -35.47926414	     12.43554243	     19.16321890	      0.98261376	    -27.30722319	      0.85273542	     15.77261451	     14.84650796	    -23.74996254	     -2.10480427	      2.26416598	     19.31456621	     -4.90618980	    -14.29014183	    -15.18293226	      4.93490099	      0.00090409	     -0.03107930	     -0.00486042	      0.01632825	     -0.01844646	     -0.00564581	      0.00344852	     -0.06755209	     -0.00452154	      0.00937878	     -0.18313829	     -0.00040595	     -0.00666106	      0.00204825	     -0.00003010	     -0.00043929	     -0.00017572	     -0.00087858	     -0.00056229	     -0.00168688	     -0.00094887	     -0.00001191	     -0.00013843	     -0.00016611	      0.00247815	      0.00869452	      0.00604836	     -0.00810648	      0.01957316	     -0.01856510	      0.00247815	      0.00869452	      0.00604836	      0.00054603	      0.01814508	     -0.00953457	      0.00392659	      0.00483491	      0.01591520	      0.00000000	      0.00764362	      0.00000000	     -0.00709842	     -0.03280395	     -0.00630174	      0.01851720	     -0.00072974	     -0.00711121	     -0.00088205	      0.01478488	     -0.00604836	      0.00243614	      0.02133727	     -0.01764105	     -0.00592235	      0.01281076	     -0.00541832	     -0.01234873	      0.02704961	     -0.03028380	     -0.02318538	      0.01432285	     -0.00726643	     -0.01537291	      0.03124985	     -0.03784425
      1.40000000	     -0.32333630	      0.13695000	     -0.13695000	      0.32333630	     -0.06546902	      0.52909762	      0.23782574	     -0.23782574	     -0.52909762	      0.06546902	     99.46570671	     76.55274326	     -1.73600407	    -23.89676711	     29.73967578	     48.17447574	      0.20283042	      0.21632183	      0.24159645	      0.10816091	     36.91616011	    -10.47027538	     12.22893577	     -3.83970473	    -32.50039850	     11.88263467	     20.19281950	     -2.69632502	    -24.84204181	      0.66756115	     13.49526464	     15.35398841	    -23.22492250	     -1.91499125	      0.91457743	     22.69343518	     -9.56086057	    -14.19676357	    -12.45188958	      4.99293928	      0.00088370	     -0.03100862	     -0.00484904	      0.01651324	     -0.01827893	     -0.00655055	      0.00399045	     -0.06720166	     -0.00393071	      0.00861355	     -0.18331553	     -0.00041929	     -0.00578092	      0.00172308	      0.00006963	     -0.00026052	     -0.00010421	     -0.00052103	     -0.00033346	     -0.00100038	     -0.00056271	     -0.00001272	     -0.00016579	     -0.00019895	      0.00250923	      0.00880357	      0.00612422	     -0.00820816	      0.01981867	     -0.01879797	      0.00250923	      0.00880357	      0.00612422	      0.00055288	      0.01837267	     -0.00965416	      0.00396252	      0.00489556	      0.01600316	      0.00000000	      0.00783794	      0.00000000	     -0.00718746	     -0.03321541	     -0.00646306	      0.01592335	     -0.00055453	     -0.00476725	     -0.00089312	      0.01497033	     -0.00612422	      0.00246670	      0.02160490	     -0.01786232	     -0.00599664	      0.01297145	     -0.00548628	     -0.01250363	      0.02738889	     -0.03066365	     -0.02347619	      0.01450250	     -0.00735758	     -0.01556574	      0.03164183	     -0.03831893
      1.43333333	     -0.32398001	      0.13722264	     -0.13722264	      0.32398001	     -0.06559936	      0.53015097	      0.23829921	     -0.23829921	     -0.53015097	      0.06559936	     99.35287073	     76.70514796	     -1.73403472	    -23.27193794	     29.85801082	     48.39112387	      0.19667539	      0.20959663	      0.23525537	      0.10479832	     36.68220958	    -12.64599882	     11.59248067	     -3.87357292	    -31.87072699	     11.12169278	     20.59369784	     -2.70105826	    -24.33595191	      0.86844276	     13.70854930	     15.25037826	    -22.88447462	     -1.26805922	      1.03735720	     22.47867399	    -10.51461116	    -13.94955975	    -12.46422399	      5.02297388	      0.00088761	     -0.03102218	     -0.00485122	      0.01650955	     -0.01831108	     -0.00652491	      0.00397444	     -0.06721201	     -0.00394816	      0.00863591	     -0.18331051	     -0.00041948	     -0.00580692	      0.00173245	      0.00006710	     -0.00025123	     -0.00010049	     -0.00050246	     -0.00032158	     -0.00096473	     -0.00054266	     -0.00001278	     -0.00016951	     -0.00020341	      0.00251423	      0.00882110	      0.00613642	     -0.00822450	      0.01985813	     -0.01883539	      0.00251423	      0.00882110	      0.00613642	      0.00055398	      0.01840925	     -0.00967338	      0.00396826	      0.00490530	      0.01601710	      0.00000000	      0.00786940	      0.00000000	     -0.00720177	     -0.03328154	     -0.00648918	      0.01559282	     -0.00053449	     -0.00451636	     -0.00089489	      0.01500013	     -0.00613642	      0.00247161	      0.02164792	     -0.01789788	     -0.00600857	      0.01299727	     -0.00549721	     -0.01252852	      0.02744342	     -0.03072470	     -0.02352293	      0.01453138	     -0.00737222	     -0.01559673	      0.03170482	     -0.03839522
      1.46666667	     -0.32718235	      0.13857900	     -0.13857900	      0.32718235	     -0.06624777	      0.53539118	      0.24065465	     -0.24065465	     -0.53539118	      0.06624777	     98.68785638	     77.46333061	     -1.72242803	    -19.12224931	     29.03806997	     40.51186525	      0.13014710	     -0.01469739	      0.16276413	     -0.00734870	     35.67570024	    -13.19471824	      6.20122701	     -2.00995020	    -27.57995322	      9.87378184	     21.37912027	     -8.89786475	    -22.00037977	      0.17859754	     13.21598470	     13.09200427	    -21.89126843	     -1.71392755	      1.64713423	     19.32661109	    -14.35761861	    -13.91816116	     -8.70362041	      5.01643378	      0.00086049	     -0.03092821	     -0.00483609	      0.01657507	     -0.01808833	     -0.00741521	      0.00455663	     -0.06683556	     -0.00331345	      0.00783181	     -0.18348438	     -0.00038996	     -0.00486141	      0.00140111	      0.00014268	      0.00001486	      0.00000594	      0.00002972	      0.00001902	      0.00005707	      0.00003210	     -0.00001284	     -0.00018481	     -0.00022177	      0.00253908	      0.00890829	      0.00619707	     -0.00830580	      0.02005441	     -0.01902157	      0.00253908	      0.00890829	      0.00619707	      0.00055946	      0.01859122	     -0.00976899	      0.00399671	      0.00495379	      0.01608561	      0.00000000	      0.00802688	      0.00000000	     -0.00727295	     -0.03361051	     -0.00661988	      0.01326460	     -0.00040513	     -0.00299960	     -0.00090374	      0.01514840	     -0.00619707	      0.00249604	      0.02186189	     -0.01807479	     -0.00606797	      0.01312574	     -0.00555154	     -0.01265235	      0.02771468	     -0.03102839	     -0.02375544	      0.01467501	     -0.00744509	     -0.01575089	      0.03201820	     -0.03877473
      1.50000000	     -0.32765397	      0.13877876	     -0.13877876	      0.32765397	     -0.06634326	      0.53616292	      0.24100154	     -0.24100154	     -0.53616292	      0.06634326	     98.60610850	     77.57498884	     -1.72100126	    -18.76674550	     29.19066050	     40.58485069	      0.12510235	     -0.01630202	      0.15697139	     -0.00815101	     34.91157277	    -15.03715316	      5.60830088	     -2.14859760	    -26.91904047	      9.06715203	     21.78873533	     -8.84800221	    -21.74057900	      0.35974482	     13.26092582	     13.13404648	    -21.43231094	     -1.13766282	      1.98216916	     19.45989541	    -14.36808442	    -13.56880426	     -8.45834839	      5.07904633	      0.00086554	     -0.03094570	     -0.00483890	      0.01657511	     -0.01812979	     -0.00740736	      0.00455124	     -0.06683905	     -0.00331933	      0.00783917	     -0.18348285	     -0.00039044	     -0.00487017	      0.00140409	      0.00014213	      0.00001646	      0.00000658	      0.00003291	      0.00002106	      0.00006319	      0.00003555	     -0.00001270	     -0.00019567	     -0.00023480	      0.00254274	      0.00892113	      0.00620600	     -0.00831777	      0.02008332	     -0.01904899	      0.00254274	      0.00892113	      0.00620600	      0.00056026	      0.01861801	     -0.00978308	      0.00400088	      0.00496093	      0.01609559	      0.00000000	      0.00805021	      0.00000000	     -0.00728344	     -0.03365895	     -0.00663924	      0.01305443	     -0.00039437	     -0.00288220	     -0.00090504	      0.01517023	     -0.00620600	      0.00249964	      0.02189340	     -0.01810085	     -0.00607671	      0.01314466	     -0.00555955	     -0.01267059	      0.02775463	     -0.03107312	     -0.02378968	      0.01469616	     -0.00745582	     -0.01577359	      0.03206436	     -0.03883062
      1.53333333	     -0.32843069	      0.13910774	     -0.13910774	      0.32843069	     -0.06650053	      0.53743393	      0.24157285	     -0.24157285	     -0.53743393	      0.06650053	     98.46356620	     77.75888556	     -1.71851342	    -17.66840760	     28.96967676	     39.14923254	      0.09808966	     -0.11257128	      0.12524638	     -0.05628564	     34.45764040	    -17.53332489	      5.56863078	     -5.37983356	    -25.25935614	      7.36118738	     23.00672551	    -11.70876316	    -19.61254120	     -0.49478553	     12.18253318	     14.42731287	    -19.72931183	     -1.62477906	      1.78079960	     23.25034979	    -13.66737181	    -13.60281715	     -5.40827192	      5.01759526	      0.00085823	     -0.03092037	     -0.00483482	      0.01657211	     -0.01806975	     -0.00756042	      0.00465731	     -0.06677046	     -0.00320368	      0.00769468	     -0.18351267	     -0.00038015	     -0.00469790	      0.00134573	      0.00015236	      0.00010457	      0.00004183	      0.00020914	      0.00013385	      0.00040155	      0.00022587	     -0.00001256	     -0.00020185	     -0.00024222	      0.00254877	      0.00894228	      0.00622072	     -0.00833749	      0.02013093	     -0.01909414	      0.00254877	      0.00894228	      0.00622072	      0.00056159	      0.01866215	     -0.00980627	      0.00400774	      0.00497269	      0.01611195	      0.00000000	      0.00808871	      0.00000000	     -0.00730070	     -0.03373874	     -0.00667119	      0.01239445	     -0.00036143	     -0.00253249	     -0.00090719	      0.01520619	     -0.00622072	      0.00250557	      0.02194530	     -0.01814376	     -0.00609112	      0.01317582	     -0.00557272	     -0.01270063	      0.02782042	     -0.03114678	     -0.02384608	      0.01473100	     -0.00747350	     -0.01581099	      0.03214037	     -0.03892268
